<svg xmlns="http://www.w3.org/2000/svg" viewBox="0 0 31.94496595139472 8">

    <svg xmlns="http://www.w3.org/2000/svg" width="8" height="8" fill="#00bcff" class="bi bi-send-check-fill" viewBox="0 0 16 16">
        <path d="M15.964.686a.5.5 0 0 0-.65-.65L.767 5.855H.766l-.452.18a.5.5 0 0 0-.082.887l.41.26.001.002 4.995 3.178 1.59 2.498C8 14 8 13 8 12.5a4.5 4.5 0 0 1 5.026-4.47zm-1.833 1.89L6.637 10.07l-.215-.338a.5.5 0 0 0-.154-.154l-.338-.215 7.494-7.494 1.178-.471z"/>
        <path d="M16 12.5a3.5 3.5 0 1 1-7 0 3.5 3.5 0 0 1 7 0m-1.993-1.679a.5.5 0 0 0-.686.172l-1.17 1.95-.547-.547a.5.5 0 0 0-.708.708l.774.773a.75.75 0 0 0 1.174-.144l1.335-2.226a.5.5 0 0 0-.172-.686"/>
    </svg>


    <svg xmlns="http://www.w3.org/2000/svg" x="9" y="1" viewBox="0 10 142.4499969482422 37.25" data-asc="0.935" width="22.94496595139472" height="6">
        <defs/>
        <g fill="#b8e6fe">
            <g transform="translate(0, 0)">
                <path d="M1.25 46.75Q0.70 46.75 0.35 46.38Q0 46 0 45.50L0 13Q0 12.45 0.35 12.10Q0.70 11.75 1.25 11.75L14.25 11.75Q19.15 11.75 22.60 13.32Q26.05 14.90 27.90 17.92Q29.75 20.95 29.90 25.40Q29.95 27.60 29.95 29.25Q29.95 30.90 29.90 33.05Q29.70 37.70 27.93 40.75Q26.15 43.80 22.78 45.27Q19.40 46.75 14.50 46.75L1.25 46.75M9 39.55L14.25 39.55Q16.40 39.55 17.83 38.88Q19.25 38.20 19.98 36.75Q20.70 35.30 20.75 32.95Q20.85 31.50 20.88 30.35Q20.90 29.20 20.88 28.05Q20.85 26.90 20.75 25.50Q20.65 22.10 18.98 20.52Q17.30 18.95 14 18.95L9 18.95L9 39.55ZM47.25 47.25Q41.35 47.25 37.85 44.05Q34.35 40.85 34.20 34.55Q34.20 34.20 34.20 33.65Q34.20 33.10 34.20 32.80Q34.35 28.85 35.98 26.02Q37.60 23.20 40.48 21.72Q43.35 20.25 47.20 20.25Q51.60 20.25 54.48 22Q57.35 23.75 58.80 26.75Q60.25 29.75 60.25 33.60L60.25 34.80Q60.25 35.35 59.90 35.70Q59.55 36.05 59.00 36.05L43.00 36.05Q43.00 36.10 43.00 36.20Q43.00 36.30 43.00 36.40Q43.05 37.85 43.53 39.05Q44.00 40.25 44.93 40.95Q45.85 41.65 47.20 41.65Q48.20 41.65 48.88 41.33Q49.55 41 50 40.58Q50.45 40.15 50.70 39.85Q51.15 39.30 51.43 39.17Q51.70 39.05 52.30 39.05L58.50 39.05Q59.00 39.05 59.33 39.35Q59.65 39.65 59.60 40.15Q59.55 41 58.75 42.20Q57.95 43.40 56.43 44.58Q54.90 45.75 52.60 46.50Q50.30 47.25 47.25 47.25M43.00 31.10L51.45 31.10L51.45 31Q51.45 29.35 50.98 28.18Q50.50 27 49.53 26.35Q48.55 25.70 47.20 25.70Q45.90 25.70 44.95 26.35Q44.00 27 43.50 28.18Q43.00 29.35 43.00 31L43.00 31.10ZM66.20 46.75Q65.65 46.75 65.30 46.38Q64.95 46 64.95 45.50L64.95 12.50Q64.95 11.95 65.30 11.60Q65.65 11.25 66.20 11.25L72.10 11.25Q72.65 11.25 73 11.60Q73.35 11.95 73.35 12.50L73.35 45.50Q73.35 46 73 46.38Q72.65 46.75 72.10 46.75L66.20 46.75ZM80.50 46.75Q79.95 46.75 79.60 46.38Q79.25 46 79.25 45.50L79.25 22Q79.25 21.45 79.60 21.10Q79.95 20.75 80.50 20.75L86.40 20.75Q86.95 20.75 87.30 21.10Q87.65 21.45 87.65 22L87.65 45.50Q87.65 46 87.30 46.38Q86.95 46.75 86.40 46.75L80.50 46.75M80.45 17Q79.90 17 79.55 16.65Q79.20 16.30 79.20 15.75L79.20 11.25Q79.20 10.75 79.55 10.38Q79.90 10 80.45 10L86.45 10Q86.95 10 87.33 10.38Q87.70 10.75 87.70 11.25L87.70 15.75Q87.70 16.30 87.33 16.65Q86.95 17 86.45 17L80.45 17ZM102.80 46.75Q102.05 46.75 101.70 46.38Q101.35 46 101.10 45.50L91.65 22.30Q91.55 22.10 91.55 21.85Q91.55 21.40 91.88 21.07Q92.20 20.75 92.70 20.75L98.35 20.75Q99.00 20.75 99.35 21.10Q99.70 21.45 99.80 21.80L105.45 37.15L111.15 21.80Q111.25 21.45 111.60 21.10Q111.95 20.75 112.60 20.75L118.25 20.75Q118.70 20.75 119.05 21.07Q119.40 21.40 119.40 21.85Q119.40 22.10 119.30 22.30L109.85 45.50Q109.65 46 109.28 46.38Q108.90 46.75 108.10 46.75L102.80 46.75ZM124.55 46.75Q124.00 46.75 123.65 46.38Q123.30 46 123.30 45.50L123.30 22Q123.30 21.50 123.65 21.13Q124.00 20.75 124.55 20.75L130.30 20.75Q130.85 20.75 131.23 21.13Q131.60 21.50 131.60 22L131.60 24Q132.90 22.45 134.78 21.60Q136.65 20.75 139 20.75L141.20 20.75Q141.75 20.75 142.10 21.10Q142.45 21.45 142.45 22L142.45 27.15Q142.45 27.65 142.10 28.02Q141.75 28.40 141.20 28.40L136.35 28.40Q134.30 28.40 133.18 29.52Q132.05 30.65 132.05 32.70L132.05 45.50Q132.05 46 131.68 46.38Q131.30 46.75 130.75 46.75L124.55 46.75Z"/>
            </g>
        </g>
    </svg>

</svg>